PathFileType	4	(X/Y/Z)	Patient4_TMGait_0pt6_02_right_25.trc.trc
DataRate	CameraRate	NumFrames	NumMarkers	Units	OrigDataRate	OrigDataStartFrame	OrigNumFrames
82.840236686390	82.840236686390	5	33	mm	82.840236686390	89	       141
Frame#	Time	Sacral			L.Shoulder			Chest			R.Shoulder			Neck			R.ASIS			L.ASIS			R.Thigh.Superior			R.Thigh.Lateral			R.Thigh.Inferior			R.Patella			L.Thigh.Superior			L.Thigh.Lateral			L.Thigh.Inferior			L.Patella			L.Shank.Superior			L.Shank.Lateral			L.Shank.Inferior			R.Shank.Superior			R.Shank.Lateral			R.Shank.Inferior			R.Heel			R.Midfoot.Superior			R.Midfoot.Lateral			R.Toe			L.Heel			L.Midfoot.Lateral			L.Midfoot.Superior			L.Toe			L.Elbow			L.Wrist			R.Elbow			R.Wrist			
		X1	Y1	Z1	X2	Y2	Z2	X3	Y3	Z3	X4	Y4	Z4	X5	Y5	Z5	X6	Y6	Z6	X7	Y7	Z7	X8	Y8	Z8	X9	Y9	Z9	X10	Y10	Z10	X11	Y11	Z11	X12	Y12	Z12	X13	Y13	Z13	X14	Y14	Z14	X15	Y15	Z15	X16	Y16	Z16	X17	Y17	Z17	X18	Y18	Z18	X19	Y19	Z19	X20	Y20	Z20	X21	Y21	Z21	X22	Y22	Z22	X23	Y23	Z23	X24	Y24	Z24	X25	Y25	Z25	X26	Y26	Z26	X27	Y27	Z27	X28	Y28	Z28	X29	Y29	Z29	X30	Y30	Z30	X31	Y31	Z31	X32	Y32	Z32	X33	Y33	Z33	

89	31.042285714286	867.896694055482	1010.216730523233	429.154104962291	1047.082254692960	1418.712606105697	220.989129202388	1156.992324270173	1354.354809624470	378.692198194926	1087.468051862516	1447.236776868617	549.115772350453	1059.431812282368	1489.324552900066	366.421364200895	1090.321772703048	938.397056841447	544.877198165526	1079.018685299584	955.441259804303	271.140772183394	1144.683638789798	744.364869964859	518.736488965446	1075.984327286474	627.155170829151	580.818438164907	1162.833388447973	576.835173967847	506.557036524764	1160.413100458449	463.822879841373	522.943980248228	1141.612585045362	759.626553658101	297.126739248903	1064.270878336955	638.394555838613	238.074208732221	1157.719723757532	569.462301526184	300.276250890855	1164.180701976594	500.218976554065	308.607218661453	1143.424857355719	426.422744246743	299.777789881468	1062.087054709274	304.575496358267	252.234258029648	1127.498584928041	199.120873476131	321.554031232632	1081.135188659658	396.190422297504	519.427371096532	955.029222180613	356.263952510647	567.560523371265	943.440712843698	250.970484335759	511.058561523960	741.227021198675	181.647340095192	461.415383766178	911.064115930999	142.800249474367	519.661402524256	799.407242919562	135.463559709079	544.043331047118	981.920307503667	44.043636082428	562.013777918489	1014.047821769174	38.215809720911	369.080213853615	1085.876642300512	34.516077490076	286.219519647966	1167.266965580624	99.331266460549	310.117646703596	1296.424418007736	51.816528118342	281.248495541971	989.495460096410	1061.824504954761	124.966105104940	1030.736459149315	804.851488179396	130.159103380660	1102.561310240910	1118.021468286021	700.047819138435	1323.035988681693	1090.027880094577	584.260600659197	
90	31.054357142857	866.476139337680	1010.964574046679	427.652974217538	1047.886396699365	1418.792456586208	218.913687329569	1156.585723417477	1354.874035854591	377.613798321917	1086.000116213105	1448.297496296683	547.355348706226	1059.340562088636	1489.979797650948	364.101686904749	1089.148894205099	939.033455670882	543.398778393794	1077.719630729460	956.607890614630	269.710819001186	1148.970054239994	749.109934006660	517.750197727972	1084.842055576294	630.298619241750	581.096989770849	1173.848630789040	582.332246405661	507.429252739406	1174.288715271546	468.397573921068	524.394171544013	1137.898391607974	758.878245486895	294.436347116353	1058.758885535297	638.752182930608	236.396333756322	1151.513534061654	568.760469788379	298.263333208708	1157.034680112836	499.713418196831	306.578812167108	1136.176185349216	426.195157180242	298.046835456886	1054.277591375676	304.381220624110	251.343317697960	1119.912751279622	199.037693406201	320.710529300392	1093.976742820099	400.487400971134	520.123316395483	966.067076129770	363.334427299988	566.357554746841	953.074658044589	258.120309453497	510.213874293315	750.104939380915	193.847198119608	457.212897914349	918.038550740591	150.091053086778	518.553983369073	805.460682679277	146.216781587358	541.200860020923	985.497065930697	48.361427243284	563.240902292407	1006.647036106694	38.148506305487	369.013556513259	1078.438587574969	34.350411170650	286.093005779814	1159.834858284886	99.294646829632	309.821929603177	1289.013721510719	51.820311344725	281.170820039458	998.222971644767	1061.162467449247	121.060009715004	1046.991980330794	805.454067874606	126.052160798598	1088.254687186869	1118.871663409197	699.241497478214	1309.542598865217	1074.306454242427	589.327588680085	
91	31.066428571429	865.051118703335	1011.666432186370	426.239589533059	1048.579688619109	1418.946850549264	217.135001844659	1156.133507612914	1355.379621623040	376.745886226976	1084.556381621706	1449.226001671064	545.882509421616	1059.230030940013	1490.638618952737	362.117140128437	1088.083794882452	939.687685003010	541.816034841912	1076.337586160198	957.723895389987	268.214346268745	1152.907666825064	753.977769420173	516.779434795527	1093.168358554899	633.886418777855	581.466429530707	1184.126640600771	588.283574453344	508.323499463538	1187.557921570685	473.671382830416	525.800061288352	1134.126241598645	758.221540771218	291.991176805791	1053.295932206745	639.144893870695	234.769495027739	1145.299322667185	568.087672928308	296.350543522476	1149.895792385851	499.216529085525	304.634731582454	1128.944549052044	425.986655986642	296.408254327531	1046.494870969381	304.215526668914	250.497834956704	1112.348581403946	198.964067391916	319.911462151281	1106.707380813876	405.177600203408	520.922328121896	977.489638388004	369.895480822283	565.594368038460	963.661631266080	264.744965641286	509.717246074653	760.419094919515	203.882462271096	454.033821300062	926.811767474442	156.743889302651	517.707116217060	813.644543214940	155.280754362162	539.047586247352	991.879232766740	52.914323362523	564.170616791973	999.234776190114	38.088954619327	368.956227766423	1070.996787058676	34.202533684341	285.978197230987	1152.411675389850	99.243546604622	309.551125536336	1281.602905523744	51.782196724526	281.100706810821	1006.947979979880	1060.850502972585	117.343103865623	1063.427668997013	806.644582899394	122.108432306041	1074.006411252522	1119.887490457624	698.181577204581	1295.024772796612	1057.904636646988	595.131963828194	
92	31.078500000000	863.659467708183	1012.340715602189	424.904409027864	1049.157717065794	1419.206674665184	215.641443454344	1155.647302250711	1355.890561050532	376.059252815315	1083.163577482848	1450.030718667930	544.676258846954	1059.104214314194	1491.307660193283	360.467716193787	1087.127860596991	940.407122336525	540.147219986037	1074.913537107008	958.775671811079	266.657840906344	1156.486452468398	758.913227910857	515.782720453837	1100.926392529693	637.833943613523	581.855945886235	1193.602238718902	594.570937093597	509.128647045373	1200.117387140050	479.515468382671	527.070355830151	1130.411824420335	757.657619201821	289.793342001278	1047.943363096893	639.555797232626	233.242314490938	1139.170639598545	567.439521602018	294.568597057338	1142.877134243912	498.732962131329	302.841287838965	1121.833688057172	425.796589520929	294.917035326489	1038.835336783775	304.094892567329	249.726704632658	1104.864316303875	198.899581244263	319.184639723006	1119.223867781898	410.144692695774	521.764080219823	989.238700010010	375.731080713477	565.335460041155	975.156531148573	270.610521814913	509.636548545679	772.044073106768	211.439657364458	452.143099468430	937.412167689041	162.437782026832	517.242747313955	823.953454213796	162.270074172384	537.779001624612	1001.177979960126	57.354888047951	564.788612658643	991.826654880875	38.042921774060	368.906597880125	1063.569537496044	34.081825573078	285.876587563180	1145.011299109913	99.185611572353	309.311624454216	1274.206477279931	51.718051171525	281.033954572077	1015.639325675775	1060.914804086659	113.849296260009	1079.937311741596	808.460278654586	118.356071133160	1059.990242230543	1121.061091421859	696.886381553185	1279.414231640155	1040.930768600984	601.646075268848	
93	31.090571428571	862.328660208356	1012.997741937442	423.640498982122	1049.627558674404	1419.592835708841	214.409209708573	1155.138599279522	1356.418280660145	375.521210802580	1081.836847072206	1450.716586313685	543.706985285489	1058.965131952179	1491.985745774995	359.139524418708	1086.270358050125	941.230385481842	538.435211698353	1073.485968428138	959.745256171886	265.067305376183	1159.705276395200	763.863745565405	514.724650603580	1108.112434676122	642.044486272726	582.200840209504	1202.244013092691	601.063509543872	509.738716146940	1211.894996223960	485.789942662521	528.112533656440	1126.847893431820	757.170037570567	287.850776868673	1042.762222804985	639.964435284392	231.860945029470	1133.214435617793	566.808844085132	292.955977983496	1136.079815663003	498.259874540748	301.259802062779	1114.934376287449	425.618236627869	293.621701465582	1031.383832356729	304.027912687780	249.052822077741	1097.507864612302	198.838910778593	318.555439467413	1131.443959021633	415.268958537405	522.588365154407	1001.256638756726	380.674634542461	565.604486981009	987.502761105677	275.535778548283	510.015601068787	784.865223861253	216.330299644721	451.699317813813	949.816438350293	166.935339238266	517.270230165788	836.325015611102	166.947603907491	537.536215644663	1013.389768410036	61.380910453515	565.165700237037	984.432978719474	38.013423774351	368.864986109477	1056.169072165296	33.993577964121	285.790697083457	1137.644132165239	99.122752501288	309.110945405034	1266.835052055109	51.633853117064	280.969976857555	1024.249837095823	1061.369224708399	110.602247290646	1096.420628106416	810.924987638237	114.822789465992	1046.389610732615	1122.369471098991	695.390835153434	1262.649850273563	1023.540477039075	608.811311408804	
